<svg width="500" height="500" viewBox="0 0 500 500" fill="none" xmlns="http://www.w3.org/2000/svg">
<path d="M410.459 333.102C417.935 272.049 381.715 190.904 344.162 157.396C276.369 96.9035 220.048 108.602 176.243 130.27C132.438 151.938 126.18 224.275 95.9342 257.004C65.6882 289.733 48.4822 333.755 94.3732 377.578C140.264 421.401 177.286 399.133 225.263 396.356C273.24 393.579 336.861 415.46 371.281 396.433C395.315 383.146 407.155 360.087 410.459 333.102Z" fill="#0F4C81"/>
<path opacity="0.7" d="M410.459 333.102C417.935 272.049 381.715 190.904 344.162 157.396C276.369 96.9035 220.048 108.602 176.243 130.27C132.438 151.938 126.18 224.275 95.9342 257.004C65.6882 289.733 48.4822 333.755 94.3732 377.578C140.264 421.401 177.286 399.133 225.263 396.356C273.24 393.579 336.861 415.46 371.281 396.433C395.315 383.146 407.155 360.087 410.459 333.102Z" fill="white"/>
<path d="M220.609 330.953V106.014" stroke="#263238" stroke-miterlimit="10" stroke-linecap="round" stroke-linejoin="round"/>
<path d="M74.3906 333.178H216.283L431.85 402.76" stroke="#263238" stroke-miterlimit="10" stroke-linecap="round" stroke-linejoin="round"/>
<path d="M139.032 327.903H129.203V165.838H149.433L140.701 134.328H114.505L105.773 165.838H126.002V327.903H116.173C110.932 327.903 106.68 332.104 106.582 337.321C106.58 337.345 106.573 337.369 106.573 337.393C106.573 337.404 106.577 337.414 106.577 337.424C106.577 337.45 106.573 337.476 106.573 337.503H106.587C106.881 339.763 116.165 341.578 127.583 341.578C139.002 341.578 148.286 339.763 148.58 337.503H148.632C148.632 332.201 144.334 327.903 139.032 327.903Z" fill="#263238"/>
<path d="M269.586 94.8587V285.684L413.253 309.32V71.2227L269.586 94.8587ZM409.529 149.499L336.48 153.636V87.3427L409.529 75.7187V149.499ZM336.48 160.614L409.529 157.265V223.926L336.48 220.511V160.614ZM330.552 220.233L272 217.496V163.571L330.552 160.886V220.233ZM330.552 88.2857V153.972L272 157.288V97.6027L330.552 88.2857ZM272 223.779L330.552 227.148V292.257L272 282.94V223.779ZM336.48 293.2V227.488L409.529 231.691V304.824L336.48 293.2Z" fill="#263238" stroke="#263238" stroke-miterlimit="10" stroke-linecap="round" stroke-linejoin="round"/>
<path d="M220.04 425.954C283.523 425.954 334.986 409.92 334.986 390.14C334.986 370.361 283.523 354.326 220.04 354.326C156.557 354.326 105.094 370.361 105.094 390.14C105.094 409.92 156.557 425.954 220.04 425.954Z" fill="#0F4C81"/>
<path opacity="0.5" d="M220.04 425.954C283.523 425.954 334.986 409.92 334.986 390.14C334.986 370.361 283.523 354.326 220.04 354.326C156.557 354.326 105.094 370.361 105.094 390.14C105.094 409.92 156.557 425.954 220.04 425.954Z" fill="white"/>
<path d="M210.329 232.239C210.329 232.239 184.279 229.154 167.141 242.522C150.003 255.89 135.264 311.759 135.607 338.494C135.95 365.229 145.89 378.597 170.911 389.565C195.932 400.533 242.548 396.42 268.597 388.194C294.647 379.968 303.216 351.176 302.873 335.752C302.53 320.328 285.392 302.504 279.565 298.734C273.738 294.964 257.286 287.08 249.059 274.741C240.834 262.401 228.837 235.666 210.329 232.239Z" fill="#0F4C81"/>
<mask id="mask0_2952_617" style="mask-type:luminance" maskUnits="userSpaceOnUse" x="135" y="231" width="168" height="166">
<path d="M210.329 232.239C210.329 232.239 184.279 229.154 167.141 242.522C150.003 255.89 135.264 311.759 135.607 338.494C135.95 365.229 145.89 378.597 170.911 389.565C195.932 400.533 242.548 396.42 268.597 388.194C294.647 379.968 303.216 351.176 302.873 335.752C302.53 320.328 285.392 302.504 279.565 298.734C273.738 294.964 257.286 287.08 249.059 274.741C240.834 262.401 228.837 235.666 210.329 232.239Z" fill="white"/>
</mask>
<g mask="url(#mask0_2952_617)">
<path opacity="0.13" d="M273.375 386.374C263.525 385.044 251.845 382.371 243.003 377.002C224.336 365.669 219.67 344.335 213.003 336.335C206.336 328.335 194.336 329.002 189.003 320.335C183.67 311.668 192.336 247.668 177.003 243.668C172.883 242.593 169.781 242.244 167.437 242.303C167.339 242.378 167.238 242.446 167.141 242.521C150.003 255.889 135.264 311.758 135.607 338.494C135.95 365.229 145.89 378.597 170.911 389.565C195.932 400.533 242.548 396.42 268.597 388.194C270.261 387.67 271.852 387.058 273.375 386.374Z" fill="black"/>
</g>
<path d="M210.329 232.239C210.329 232.239 184.279 229.154 167.141 242.522C150.003 255.89 135.264 311.759 135.607 338.494C135.95 365.229 145.89 378.597 170.911 389.565C195.932 400.533 242.548 396.42 268.597 388.194C294.647 379.968 303.216 351.176 302.873 335.752C302.53 320.328 285.392 302.504 279.565 298.734C273.738 294.964 257.286 287.08 249.059 274.741C240.834 262.401 228.837 235.666 210.329 232.239Z" stroke="#263238" stroke-miterlimit="10" stroke-linecap="round" stroke-linejoin="round"/>
<path d="M200.07 244.32C200.07 244.32 183.07 247.57 180.07 250.57C177.07 253.57 164.57 300.57 164.57 300.57C164.57 300.57 170.07 299.07 175.07 301.07C180.07 303.07 180.57 308.32 181.07 310.82C181.57 313.32 181.82 319.82 181.82 319.82C181.82 319.82 232.354 315.306 243.104 312.806C253.854 310.306 270.214 309.156 270.214 309.156C270.214 309.156 242.57 246.82 238.32 244.57C234.07 242.32 216.32 242.07 213.82 242.57C211.32 243.07 200.07 244.32 200.07 244.32Z" fill="#263238" stroke="#263238" stroke-miterlimit="10" stroke-linecap="round" stroke-linejoin="round"/>
<path d="M183.32 302.07L187.57 267.32" stroke="white" stroke-miterlimit="10" stroke-linecap="round" stroke-linejoin="round"/>
<path d="M186.57 276.57L192.32 269.07" stroke="white" stroke-miterlimit="10" stroke-linecap="round" stroke-linejoin="round"/>
<path d="M203.82 281.07C203.82 281.07 220.07 275.82 230.82 275.82" stroke="white" stroke-miterlimit="10" stroke-linecap="round" stroke-linejoin="round"/>
<path d="M219.158 266.736L218.07 275.069C218.07 275.069 220.82 275.069 221.07 276.319C221.32 277.569 220.07 278.819 220.07 278.819C220.07 278.819 227.82 283.069 228.82 288.069" stroke="white" stroke-miterlimit="10" stroke-linecap="round" stroke-linejoin="round"/>
<path d="M209.407 234.987C209.407 234.987 200.074 237.987 198.74 240.32C197.407 242.653 198.407 258.987 198.407 260.987C198.407 262.987 199.574 259.82 200.574 257.487C201.574 255.154 205.074 251.654 206.241 251.987C207.408 252.32 208.074 253.654 208.074 255.82C208.074 257.987 210.741 260.987 213.074 262.653C215.407 264.32 217.574 265.986 217.574 265.986C217.574 265.986 222.407 258.986 223.574 257.153C224.741 255.32 224.574 251.486 224.741 250.153C224.908 248.82 227.908 253.82 228.574 252.486C229.241 251.153 227.074 249.986 224.741 246.319C222.408 242.652 223.074 238.819 219.574 236.152C216.074 233.487 212.074 234.32 209.407 234.987Z" fill="white"/>
<mask id="mask1_2952_617" style="mask-type:luminance" maskUnits="userSpaceOnUse" x="198" y="234" width="31" height="32">
<path d="M209.407 234.987C209.407 234.987 200.074 237.987 198.74 240.32C197.407 242.653 198.407 258.987 198.407 260.987C198.407 262.987 199.574 259.82 200.574 257.487C201.574 255.154 205.074 251.654 206.241 251.987C207.408 252.32 208.074 253.654 208.074 255.82C208.074 257.987 210.741 260.987 213.074 262.653C215.407 264.32 217.574 265.986 217.574 265.986C217.574 265.986 222.407 258.986 223.574 257.153C224.741 255.32 224.574 251.486 224.741 250.153C224.908 248.82 227.908 253.82 228.574 252.486C229.241 251.153 227.074 249.986 224.741 246.319C222.408 242.652 223.074 238.819 219.574 236.152C216.074 233.487 212.074 234.32 209.407 234.987Z" fill="white"/>
</mask>
<g mask="url(#mask1_2952_617)">
<path d="M198.74 240.319C197.85 241.876 198 249.663 198.197 255.27C200.322 252.527 204.711 247.355 207.254 248.333C210.491 249.578 211.736 258.791 211.736 258.791L209.549 234.951C209.502 234.963 209.452 234.974 209.406 234.986C209.406 234.986 200.073 237.986 198.74 240.319Z" fill="#0F4C81"/>
</g>
<mask id="mask2_2952_617" style="mask-type:luminance" maskUnits="userSpaceOnUse" x="198" y="234" width="31" height="32">
<path d="M209.407 234.987C209.407 234.987 200.074 237.987 198.74 240.32C197.407 242.653 198.407 258.987 198.407 260.987C198.407 262.987 199.574 259.82 200.574 257.487C201.574 255.154 205.074 251.654 206.241 251.987C207.408 252.32 208.074 253.654 208.074 255.82C208.074 257.987 210.741 260.987 213.074 262.653C215.407 264.32 217.574 265.986 217.574 265.986C217.574 265.986 222.407 258.986 223.574 257.153C224.741 255.32 224.574 251.486 224.741 250.153C224.908 248.82 227.908 253.82 228.574 252.486C229.241 251.153 227.074 249.986 224.741 246.319C222.408 242.652 223.074 238.819 219.574 236.152C216.074 233.487 212.074 234.32 209.407 234.987Z" fill="white"/>
</mask>
<g mask="url(#mask2_2952_617)">
<path opacity="0.5" d="M198.74 240.319C197.85 241.876 198 249.663 198.197 255.27C200.322 252.527 204.711 247.355 207.254 248.333C210.491 249.578 211.736 258.791 211.736 258.791L209.549 234.951C209.502 234.963 209.452 234.974 209.406 234.986C209.406 234.986 200.073 237.986 198.74 240.319Z" fill="white"/>
</g>
<path d="M209.407 234.987C209.407 234.987 200.074 237.987 198.74 240.32C197.407 242.653 198.407 258.987 198.407 260.987C198.407 262.987 199.574 259.82 200.574 257.487C201.574 255.154 205.074 251.654 206.241 251.987C207.408 252.32 208.074 253.654 208.074 255.82C208.074 257.987 210.741 260.987 213.074 262.653C215.407 264.32 217.574 265.986 217.574 265.986C217.574 265.986 222.407 258.986 223.574 257.153C224.741 255.32 224.574 251.486 224.741 250.153C224.908 248.82 227.908 253.82 228.574 252.486C229.241 251.153 227.074 249.986 224.741 246.319C222.408 242.652 223.074 238.819 219.574 236.152C216.074 233.487 212.074 234.32 209.407 234.987Z" stroke="#263238" stroke-miterlimit="10" stroke-linecap="round" stroke-linejoin="round"/>
<path d="M187.321 302.569C187.321 302.569 181.571 294.319 174.571 293.569C167.571 292.819 159.071 298.569 158.821 300.569C158.571 302.569 156.821 313.319 158.071 314.819C159.321 316.319 164.071 317.569 173.321 314.569C182.571 311.569 186.321 307.819 187.321 302.569Z" fill="white"/>
<mask id="mask3_2952_617" style="mask-type:luminance" maskUnits="userSpaceOnUse" x="157" y="293" width="31" height="24">
<path d="M187.321 302.569C187.321 302.569 181.571 294.319 174.571 293.569C167.571 292.819 159.071 298.569 158.821 300.569C158.571 302.569 156.821 313.319 158.071 314.819C159.321 316.319 164.071 317.569 173.321 314.569C182.571 311.569 186.321 307.819 187.321 302.569Z" fill="white"/>
</mask>
<g mask="url(#mask3_2952_617)">
<path d="M163.928 314.565C163.928 314.565 161.936 308.838 162.932 306.846C163.928 304.854 167.912 301.866 170.402 298.878C172.892 295.89 164.571 300.569 164.177 298.878C163.86 297.517 168.561 294.803 170.412 293.793C164.592 294.907 159.022 298.955 158.821 300.569C158.571 302.569 156.821 313.319 158.071 314.819C158.716 315.593 160.303 316.296 162.952 316.387C163.555 315.335 163.928 314.565 163.928 314.565Z" fill="#0F4C81"/>
</g>
<mask id="mask4_2952_617" style="mask-type:luminance" maskUnits="userSpaceOnUse" x="157" y="293" width="31" height="24">
<path d="M187.321 302.569C187.321 302.569 181.571 294.319 174.571 293.569C167.571 292.819 159.071 298.569 158.821 300.569C158.571 302.569 156.821 313.319 158.071 314.819C159.321 316.319 164.071 317.569 173.321 314.569C182.571 311.569 186.321 307.819 187.321 302.569Z" fill="white"/>
</mask>
<g mask="url(#mask4_2952_617)">
<path opacity="0.5" d="M163.928 314.565C163.928 314.565 161.936 308.838 162.932 306.846C163.928 304.854 167.912 301.866 170.402 298.878C172.892 295.89 164.571 300.569 164.177 298.878C163.86 297.517 168.561 294.803 170.412 293.793C164.592 294.907 159.022 298.955 158.821 300.569C158.571 302.569 156.821 313.319 158.071 314.819C158.716 315.593 160.303 316.296 162.952 316.387C163.555 315.335 163.928 314.565 163.928 314.565Z" fill="white"/>
</g>
<path d="M187.321 302.569C187.321 302.569 181.571 294.319 174.571 293.569C167.571 292.819 159.071 298.569 158.821 300.569C158.571 302.569 156.821 313.319 158.071 314.819C159.321 316.319 164.071 317.569 173.321 314.569C182.571 311.569 186.321 307.819 187.321 302.569Z" stroke="#263238" stroke-miterlimit="10" stroke-linecap="round" stroke-linejoin="round"/>
<path d="M167.817 304.82C167.817 304.82 158.435 308.544 158.067 315.82C157.863 319.846 164.567 321.57 171.567 321.57C178.567 321.57 188.567 312.82 195.067 309.07C201.567 305.32 216.567 296.57 218.317 295.82C220.067 295.07 226.067 297.07 228.567 297.82C231.067 298.57 235.817 298.57 235.817 298.57C235.817 298.57 239.317 304.07 241.067 304.07C242.817 304.07 237.317 295.82 236.567 294.07C235.817 292.32 223.567 288.32 222.067 288.32C220.567 288.32 185.567 297.07 180.317 299.07C175.067 301.07 167.817 304.82 167.817 304.82Z" fill="white"/>
<mask id="mask5_2952_617" style="mask-type:luminance" maskUnits="userSpaceOnUse" x="158" y="288" width="84" height="34">
<path d="M167.817 304.82C167.817 304.82 158.435 308.544 158.067 315.82C157.863 319.846 164.567 321.57 171.567 321.57C178.567 321.57 188.567 312.82 195.067 309.07C201.567 305.32 216.567 296.57 218.317 295.82C220.067 295.07 226.067 297.07 228.567 297.82C231.067 298.57 235.817 298.57 235.817 298.57C235.817 298.57 239.317 304.07 241.067 304.07C242.817 304.07 237.317 295.82 236.567 294.07C235.817 292.32 223.567 288.32 222.067 288.32C220.567 288.32 185.567 297.07 180.317 299.07C175.067 301.07 167.817 304.82 167.817 304.82Z" fill="white"/>
</mask>
<g mask="url(#mask5_2952_617)">
<path d="M187.424 303.779C201.72 296.631 222.067 288.32 222.067 288.32C220.567 288.32 185.567 297.07 180.317 299.07C175.067 301.07 167.817 304.82 167.817 304.82C167.817 304.82 158.435 308.544 158.067 315.82C157.863 319.846 164.567 321.57 171.567 321.57C178.567 321.57 188.567 312.82 195.067 309.07C196.17 308.434 197.52 307.652 199.006 306.791C189.455 308.021 176.694 309.144 187.424 303.779Z" fill="#0F4C81"/>
</g>
<mask id="mask6_2952_617" style="mask-type:luminance" maskUnits="userSpaceOnUse" x="158" y="288" width="84" height="34">
<path d="M167.817 304.82C167.817 304.82 158.435 308.544 158.067 315.82C157.863 319.846 164.567 321.57 171.567 321.57C178.567 321.57 188.567 312.82 195.067 309.07C201.567 305.32 216.567 296.57 218.317 295.82C220.067 295.07 226.067 297.07 228.567 297.82C231.067 298.57 235.817 298.57 235.817 298.57C235.817 298.57 239.317 304.07 241.067 304.07C242.817 304.07 237.317 295.82 236.567 294.07C235.817 292.32 223.567 288.32 222.067 288.32C220.567 288.32 185.567 297.07 180.317 299.07C175.067 301.07 167.817 304.82 167.817 304.82Z" fill="white"/>
</mask>
<g mask="url(#mask6_2952_617)">
<path opacity="0.5" d="M187.424 303.779C201.72 296.631 222.067 288.32 222.067 288.32C220.567 288.32 185.567 297.07 180.317 299.07C175.067 301.07 167.817 304.82 167.817 304.82C167.817 304.82 158.435 308.544 158.067 315.82C157.863 319.846 164.567 321.57 171.567 321.57C178.567 321.57 188.567 312.82 195.067 309.07C196.17 308.434 197.52 307.652 199.006 306.791C189.455 308.021 176.694 309.144 187.424 303.779Z" fill="white"/>
</g>
<path d="M167.817 304.82C167.817 304.82 158.435 308.544 158.067 315.82C157.863 319.846 164.567 321.57 171.567 321.57C178.567 321.57 188.567 312.82 195.067 309.07C201.567 305.32 216.567 296.57 218.317 295.82C220.067 295.07 226.067 297.07 228.567 297.82C231.067 298.57 235.817 298.57 235.817 298.57C235.817 298.57 239.317 304.07 241.067 304.07C242.817 304.07 237.317 295.82 236.567 294.07C235.817 292.32 223.567 288.32 222.067 288.32C220.567 288.32 185.567 297.07 180.317 299.07C175.067 301.07 167.817 304.82 167.817 304.82Z" stroke="#263238" stroke-miterlimit="10" stroke-linecap="round" stroke-linejoin="round"/>
<path d="M240.938 249.217L233.32 292.07L288.32 292.32L296.501 251.684C296.81 250.151 295.665 248.71 294.103 248.663L243.501 247.136C242.248 247.097 241.158 247.983 240.938 249.217Z" fill="white" stroke="#263238" stroke-miterlimit="10" stroke-linecap="round" stroke-linejoin="round"/>
<path d="M233.32 292.068L206.539 311.01L267.789 309.26L288.32 292.318L233.32 292.068Z" fill="white"/>
<mask id="mask7_2952_617" style="mask-type:luminance" maskUnits="userSpaceOnUse" x="206" y="292" width="83" height="20">
<path d="M233.32 292.068L206.539 311.01L267.789 309.26L288.32 292.318L233.32 292.068Z" fill="white"/>
</mask>
<g mask="url(#mask7_2952_617)">
<path d="M233.32 292.068L206.539 311.01L267.789 309.26L288.32 292.318L233.32 292.068Z" fill="#0F4C81"/>
</g>
<mask id="mask8_2952_617" style="mask-type:luminance" maskUnits="userSpaceOnUse" x="206" y="292" width="83" height="20">
<path d="M233.32 292.068L206.539 311.01L267.789 309.26L288.32 292.318L233.32 292.068Z" fill="white"/>
</mask>
<g mask="url(#mask8_2952_617)">
<path opacity="0.5" d="M233.32 292.068L206.539 311.01L267.789 309.26L288.32 292.318L233.32 292.068Z" fill="white"/>
</g>
<path d="M233.32 292.068L206.539 311.01L267.789 309.26L288.32 292.318L233.32 292.068Z" stroke="#263238" stroke-miterlimit="10" stroke-linecap="round" stroke-linejoin="round"/>
<path d="M253.57 310.82C253.57 310.82 275.57 291.57 297.32 285.07C319.07 278.57 323.57 279.57 323.07 289.32C322.57 299.07 312.07 350.07 305.07 363.07C298.07 376.07 289.32 399.82 289.57 404.32C289.82 408.82 298.32 422.07 305.82 426.82C313.32 431.57 312.57 437.32 307.82 438.32C303.07 439.32 297.57 441.07 281.32 430.57C265.07 420.07 258.32 405.07 259.32 401.32C260.32 397.57 270.82 392.57 275.07 385.07C279.32 377.57 286.32 349.57 286.82 336.82C287.32 324.07 291.82 313.32 291.82 313.32C291.82 313.32 264.32 318.32 256.32 323.32L253.57 310.82Z" fill="white"/>
<mask id="mask9_2952_617" style="mask-type:luminance" maskUnits="userSpaceOnUse" x="253" y="280" width="71" height="160">
<path d="M253.57 310.82C253.57 310.82 275.57 291.57 297.32 285.07C319.07 278.57 323.57 279.57 323.07 289.32C322.57 299.07 312.07 350.07 305.07 363.07C298.07 376.07 289.32 399.82 289.57 404.32C289.82 408.82 298.32 422.07 305.82 426.82C313.32 431.57 312.57 437.32 307.82 438.32C303.07 439.32 297.57 441.07 281.32 430.57C265.07 420.07 258.32 405.07 259.32 401.32C260.32 397.57 270.82 392.57 275.07 385.07C279.32 377.57 286.32 349.57 286.82 336.82C287.32 324.07 291.82 313.32 291.82 313.32C291.82 313.32 264.32 318.32 256.32 323.32L253.57 310.82Z" fill="white"/>
</mask>
<g mask="url(#mask9_2952_617)">
<path d="M253.57 310.82C253.57 310.82 275.57 291.57 297.32 285.07C319.07 278.57 323.57 279.57 323.07 289.32C322.57 299.07 312.07 350.07 305.07 363.07C298.07 376.07 289.32 399.82 289.57 404.32C289.82 408.82 298.32 422.07 305.82 426.82C313.32 431.57 312.57 437.32 307.82 438.32C303.07 439.32 297.57 441.07 281.32 430.57C265.07 420.07 258.32 405.07 259.32 401.32C260.32 397.57 270.82 392.57 275.07 385.07C279.32 377.57 286.32 349.57 286.82 336.82C287.32 324.07 291.82 313.32 291.82 313.32C291.82 313.32 264.32 318.32 256.32 323.32L253.57 310.82Z" fill="#0F4C81"/>
</g>
<mask id="mask10_2952_617" style="mask-type:luminance" maskUnits="userSpaceOnUse" x="253" y="280" width="71" height="160">
<path d="M253.57 310.82C253.57 310.82 275.57 291.57 297.32 285.07C319.07 278.57 323.57 279.57 323.07 289.32C322.57 299.07 312.07 350.07 305.07 363.07C298.07 376.07 289.32 399.82 289.57 404.32C289.82 408.82 298.32 422.07 305.82 426.82C313.32 431.57 312.57 437.32 307.82 438.32C303.07 439.32 297.57 441.07 281.32 430.57C265.07 420.07 258.32 405.07 259.32 401.32C260.32 397.57 270.82 392.57 275.07 385.07C279.32 377.57 286.32 349.57 286.82 336.82C287.32 324.07 291.82 313.32 291.82 313.32C291.82 313.32 264.32 318.32 256.32 323.32L253.57 310.82Z" fill="white"/>
</mask>
<g mask="url(#mask10_2952_617)">
<path opacity="0.5" d="M253.57 310.82C253.57 310.82 275.57 291.57 297.32 285.07C319.07 278.57 323.57 279.57 323.07 289.32C322.57 299.07 312.07 350.07 305.07 363.07C298.07 376.07 289.32 399.82 289.57 404.32C289.82 408.82 298.32 422.07 305.82 426.82C313.32 431.57 312.57 437.32 307.82 438.32C303.07 439.32 297.57 441.07 281.32 430.57C265.07 420.07 258.32 405.07 259.32 401.32C260.32 397.57 270.82 392.57 275.07 385.07C279.32 377.57 286.32 349.57 286.82 336.82C287.32 324.07 291.82 313.32 291.82 313.32C291.82 313.32 264.32 318.32 256.32 323.32L253.57 310.82Z" fill="white"/>
</g>
<path d="M253.57 310.82C253.57 310.82 275.57 291.57 297.32 285.07C319.07 278.57 323.57 279.57 323.07 289.32C322.57 299.07 312.07 350.07 305.07 363.07C298.07 376.07 289.32 399.82 289.57 404.32C289.82 408.82 298.32 422.07 305.82 426.82C313.32 431.57 312.57 437.32 307.82 438.32C303.07 439.32 297.57 441.07 281.32 430.57C265.07 420.07 258.32 405.07 259.32 401.32C260.32 397.57 270.82 392.57 275.07 385.07C279.32 377.57 286.32 349.57 286.82 336.82C287.32 324.07 291.82 313.32 291.82 313.32C291.82 313.32 264.32 318.32 256.32 323.32L253.57 310.82Z" stroke="#263238" stroke-miterlimit="10" stroke-linecap="round" stroke-linejoin="round"/>
<path d="M275.07 385.07C274.752 385.632 274.389 386.175 274.007 386.709C277.863 387.142 283.428 388.508 288.07 392.57C289.425 393.756 290.542 394.855 291.489 395.876C294.417 386.531 300.17 372.17 305.07 363.07C312.07 350.07 322.57 299.07 323.07 289.32C323.57 279.57 319.07 278.57 297.32 285.07C275.57 291.57 253.57 310.82 253.57 310.82L256.32 323.32C264.32 318.32 291.82 313.32 291.82 313.32C291.82 313.32 287.32 324.07 286.82 336.82C286.32 349.57 279.32 377.57 275.07 385.07Z" fill="white" stroke="#263238" stroke-miterlimit="10" stroke-linecap="round" stroke-linejoin="round"/>
<path d="M275.07 385.07C274.752 385.632 274.389 386.175 274.007 386.709C277.863 387.142 283.428 388.508 288.07 392.57C289.425 393.756 290.542 394.855 291.489 395.876C296.282 389.444 301.669 369.126 307.751 360.77C323.466 339.18 322.57 299.07 323.07 289.32C323.57 279.57 319.07 278.57 297.32 285.07C275.57 291.57 253.57 310.82 253.57 310.82L256.32 323.32C264.32 318.32 291.82 313.32 291.82 313.32C291.82 313.32 287.32 324.07 286.82 336.82C286.32 349.57 279.32 377.57 275.07 385.07Z" fill="#263238"/>
<mask id="mask11_2952_617" style="mask-type:luminance" maskUnits="userSpaceOnUse" x="253" y="280" width="71" height="116">
<path d="M275.07 385.07C274.752 385.632 274.389 386.175 274.007 386.709C277.863 387.142 283.428 388.508 288.07 392.57C289.425 393.756 290.542 394.855 291.489 395.876C296.282 389.444 301.669 369.126 307.751 360.77C323.466 339.18 322.57 299.07 323.07 289.32C323.57 279.57 319.07 278.57 297.32 285.07C275.57 291.57 253.57 310.82 253.57 310.82L256.32 323.32C264.32 318.32 291.82 313.32 291.82 313.32C291.82 313.32 287.32 324.07 286.82 336.82C286.32 349.57 279.32 377.57 275.07 385.07Z" fill="white"/>
</mask>
<g mask="url(#mask11_2952_617)">
<path opacity="0.53" d="M275.07 385.07C274.752 385.632 274.389 386.175 274.007 386.709C277.863 387.142 283.428 388.508 288.07 392.57C289.425 393.756 290.542 394.855 291.489 395.876C296.282 389.444 301.669 369.126 307.751 360.77C323.466 339.18 322.57 299.07 323.07 289.32C323.57 279.57 319.07 278.57 297.32 285.07C275.57 291.57 253.57 310.82 253.57 310.82L256.32 323.32C264.32 318.32 291.82 313.32 291.82 313.32C291.82 313.32 287.32 324.07 286.82 336.82C286.32 349.57 279.32 377.57 275.07 385.07Z" fill="white"/>
</g>
<mask id="mask12_2952_617" style="mask-type:luminance" maskUnits="userSpaceOnUse" x="253" y="280" width="71" height="116">
<path d="M275.07 385.07C274.752 385.632 274.389 386.175 274.007 386.709C277.863 387.142 283.428 388.508 288.07 392.57C289.425 393.756 290.542 394.855 291.489 395.876C296.282 389.444 301.669 369.126 307.751 360.77C323.466 339.18 322.57 299.07 323.07 289.32C323.57 279.57 319.07 278.57 297.32 285.07C275.57 291.57 253.57 310.82 253.57 310.82L256.32 323.32C264.32 318.32 291.82 313.32 291.82 313.32C291.82 313.32 287.32 324.07 286.82 336.82C286.32 349.57 279.32 377.57 275.07 385.07Z" fill="white"/>
</mask>
<g mask="url(#mask12_2952_617)">
<path opacity="0.14" d="M312.502 288.002C312.107 284.452 273.439 300.817 257.132 307.884C254.869 309.687 253.57 310.821 253.57 310.821L256.32 323.321C264.32 318.321 291.82 313.321 291.82 313.321C291.82 313.321 287.32 324.071 286.82 336.821C286.32 349.571 279.32 377.571 275.07 385.071C274.752 385.633 274.389 386.176 274.007 386.71C276.258 386.963 279.091 387.539 281.982 388.778C288.038 375.974 294.455 361.13 297.501 349.502C303.002 328.502 313.002 292.502 312.502 288.002Z" fill="black"/>
</g>
<mask id="mask13_2952_617" style="mask-type:luminance" maskUnits="userSpaceOnUse" x="253" y="280" width="71" height="116">
<path d="M275.07 385.07C274.752 385.632 274.389 386.175 274.007 386.709C277.863 387.142 283.428 388.508 288.07 392.57C289.425 393.756 290.542 394.855 291.489 395.876C296.282 389.444 301.669 369.126 307.751 360.77C323.466 339.18 322.57 299.07 323.07 289.32C323.57 279.57 319.07 278.57 297.32 285.07C275.57 291.57 253.57 310.82 253.57 310.82L256.32 323.32C264.32 318.32 291.82 313.32 291.82 313.32C291.82 313.32 287.32 324.07 286.82 336.82C286.32 349.57 279.32 377.57 275.07 385.07Z" fill="white"/>
</mask>
<g mask="url(#mask13_2952_617)">
<path d="M291.82 313.32C291.82 313.32 299.32 298.07 305.82 291.82" stroke="#263238" stroke-miterlimit="10" stroke-linecap="round" stroke-linejoin="round"/>
</g>
<path d="M275.07 385.07C274.752 385.632 274.389 386.175 274.007 386.709C277.863 387.142 283.428 388.508 288.07 392.57C289.425 393.756 290.542 394.855 291.489 395.876C296.282 389.444 301.669 369.126 307.751 360.77C323.466 339.18 322.57 299.07 323.07 289.32C323.57 279.57 319.07 278.57 297.32 285.07C275.57 291.57 253.57 310.82 253.57 310.82L256.32 323.32C264.32 318.32 291.82 313.32 291.82 313.32C291.82 313.32 287.32 324.07 286.82 336.82C286.32 349.57 279.32 377.57 275.07 385.07Z" stroke="#263238" stroke-miterlimit="10" stroke-linecap="round" stroke-linejoin="round"/>
<path d="M220.607 330.953C220.607 330.953 232.946 330.61 244.257 326.497C255.568 322.384 235.002 314.843 227.119 318.956C219.236 323.07 220.607 330.953 220.607 330.953Z" fill="#263238" stroke="#263238" stroke-miterlimit="10" stroke-linecap="round" stroke-linejoin="round"/>
<path d="M188.073 314.819C188.073 314.819 180.073 319.319 177.323 324.319C174.573 329.319 186.406 337.652 198.906 337.152C211.406 336.652 234.323 323.069 234.323 323.069C234.323 323.069 234.573 345.069 238.823 353.069C243.073 361.069 262.573 380.569 270.323 385.569C278.073 390.569 304.073 409.319 308.073 412.319C312.073 415.319 319.573 420.819 321.323 421.069C323.073 421.319 341.323 399.069 345.573 391.569C349.823 384.069 353.573 368.319 352.073 364.819C350.573 361.319 347.573 364.319 344.573 366.819C341.573 369.319 314.073 387.569 311.573 388.819C309.073 390.069 307.323 390.569 307.323 390.569C307.323 390.569 284.823 369.069 272.823 352.569C260.823 336.069 259.823 314.819 255.323 306.819C250.823 298.819 244.323 295.319 234.573 296.319C224.823 297.319 204.573 302.569 188.073 314.819Z" fill="white"/>
<mask id="mask14_2952_617" style="mask-type:luminance" maskUnits="userSpaceOnUse" x="176" y="296" width="177" height="126">
<path d="M188.073 314.819C188.073 314.819 180.073 319.319 177.323 324.319C174.573 329.319 186.406 337.652 198.906 337.152C211.406 336.652 234.323 323.069 234.323 323.069C234.323 323.069 234.573 345.069 238.823 353.069C243.073 361.069 262.573 380.569 270.323 385.569C278.073 390.569 304.073 409.319 308.073 412.319C312.073 415.319 319.573 420.819 321.323 421.069C323.073 421.319 341.323 399.069 345.573 391.569C349.823 384.069 353.573 368.319 352.073 364.819C350.573 361.319 347.573 364.319 344.573 366.819C341.573 369.319 314.073 387.569 311.573 388.819C309.073 390.069 307.323 390.569 307.323 390.569C307.323 390.569 284.823 369.069 272.823 352.569C260.823 336.069 259.823 314.819 255.323 306.819C250.823 298.819 244.323 295.319 234.573 296.319C224.823 297.319 204.573 302.569 188.073 314.819Z" fill="white"/>
</mask>
<g mask="url(#mask14_2952_617)">
<path d="M293.859 402.021C300.535 406.805 306.35 411.026 308.074 412.319C312.074 415.319 319.574 420.819 321.324 421.069C321.945 421.158 324.644 418.41 328.055 414.5L299.424 396.084L293.859 402.021Z" fill="#0F4C81"/>
</g>
<mask id="mask15_2952_617" style="mask-type:luminance" maskUnits="userSpaceOnUse" x="176" y="296" width="177" height="126">
<path d="M188.073 314.819C188.073 314.819 180.073 319.319 177.323 324.319C174.573 329.319 186.406 337.652 198.906 337.152C211.406 336.652 234.323 323.069 234.323 323.069C234.323 323.069 234.573 345.069 238.823 353.069C243.073 361.069 262.573 380.569 270.323 385.569C278.073 390.569 304.073 409.319 308.073 412.319C312.073 415.319 319.573 420.819 321.323 421.069C323.073 421.319 341.323 399.069 345.573 391.569C349.823 384.069 353.573 368.319 352.073 364.819C350.573 361.319 347.573 364.319 344.573 366.819C341.573 369.319 314.073 387.569 311.573 388.819C309.073 390.069 307.323 390.569 307.323 390.569C307.323 390.569 284.823 369.069 272.823 352.569C260.823 336.069 259.823 314.819 255.323 306.819C250.823 298.819 244.323 295.319 234.573 296.319C224.823 297.319 204.573 302.569 188.073 314.819Z" fill="white"/>
</mask>
<g mask="url(#mask15_2952_617)">
<path opacity="0.5" d="M293.859 402.021C300.535 406.805 306.35 411.026 308.074 412.319C312.074 415.319 319.574 420.819 321.324 421.069C321.945 421.158 324.644 418.41 328.055 414.5L299.424 396.084L293.859 402.021Z" fill="white"/>
</g>
<path d="M188.073 314.819C188.073 314.819 180.073 319.319 177.323 324.319C174.573 329.319 186.406 337.652 198.906 337.152C211.406 336.652 234.323 323.069 234.323 323.069C234.323 323.069 234.573 345.069 238.823 353.069C243.073 361.069 262.573 380.569 270.323 385.569C278.073 390.569 304.073 409.319 308.073 412.319C312.073 415.319 319.573 420.819 321.323 421.069C323.073 421.319 341.323 399.069 345.573 391.569C349.823 384.069 353.573 368.319 352.073 364.819C350.573 361.319 347.573 364.319 344.573 366.819C341.573 369.319 314.073 387.569 311.573 388.819C309.073 390.069 307.323 390.569 307.323 390.569C307.323 390.569 284.823 369.069 272.823 352.569C260.823 336.069 259.823 314.819 255.323 306.819C250.823 298.819 244.323 295.319 234.573 296.319C224.823 297.319 204.573 302.569 188.073 314.819Z" stroke="#263238" stroke-miterlimit="10" stroke-linecap="round" stroke-linejoin="round"/>
<path d="M305.771 389.066C300.484 383.908 280.651 357.298 272.824 342C261.354 319.582 260.119 311.941 255.619 303.941C251.119 295.941 244.323 295.318 234.573 296.318C224.823 297.318 207.378 299.128 185.974 311.267C185.974 311.267 176.99 316.151 174.24 321.151C171.49 326.151 181.502 338.741 198.907 337.151C211.365 336.013 234.324 323.068 234.324 323.068C234.324 323.068 234.574 345.068 238.824 353.068C243.074 361.068 262.574 380.568 270.324 385.568C275.239 388.739 287.489 397.436 296.817 404.143C299.157 395.772 303.289 391.185 305.771 389.066Z" fill="#263238"/>
<mask id="mask16_2952_617" style="mask-type:luminance" maskUnits="userSpaceOnUse" x="173" y="295" width="133" height="110">
<path d="M305.771 389.066C300.484 383.908 280.651 357.298 272.824 342C261.354 319.582 260.119 311.941 255.619 303.941C251.119 295.941 244.323 295.318 234.573 296.318C224.823 297.318 207.378 299.128 185.974 311.267C185.974 311.267 176.99 316.151 174.24 321.151C171.49 326.151 181.502 338.741 198.907 337.151C211.365 336.013 234.324 323.068 234.324 323.068C234.324 323.068 234.574 345.068 238.824 353.068C243.074 361.068 262.574 380.568 270.324 385.568C275.239 388.739 287.489 397.436 296.817 404.143C299.157 395.772 303.289 391.185 305.771 389.066Z" fill="white"/>
</mask>
<g mask="url(#mask16_2952_617)">
<path opacity="0.53" d="M305.771 389.066C300.484 383.908 280.651 357.298 272.824 342C261.354 319.582 260.119 311.941 255.619 303.941C251.119 295.941 244.323 295.318 234.573 296.318C224.823 297.318 207.378 299.128 185.974 311.267C185.974 311.267 176.99 316.151 174.24 321.151C171.49 326.151 181.502 338.741 198.907 337.151C211.365 336.013 234.324 323.068 234.324 323.068C234.324 323.068 234.574 345.068 238.824 353.068C243.074 361.068 262.574 380.568 270.324 385.568C275.239 388.739 287.489 397.436 296.817 404.143C299.157 395.772 303.289 391.185 305.771 389.066Z" fill="white"/>
</g>
<mask id="mask17_2952_617" style="mask-type:luminance" maskUnits="userSpaceOnUse" x="173" y="295" width="133" height="110">
<path d="M305.771 389.066C300.484 383.908 280.651 357.298 272.824 342C261.354 319.582 260.119 311.941 255.619 303.941C251.119 295.941 244.323 295.318 234.573 296.318C224.823 297.318 207.378 299.128 185.974 311.267C185.974 311.267 176.99 316.151 174.24 321.151C171.49 326.151 181.502 338.741 198.907 337.151C211.365 336.013 234.324 323.068 234.324 323.068C234.324 323.068 234.574 345.068 238.824 353.068C243.074 361.068 262.574 380.568 270.324 385.568C275.239 388.739 287.489 397.436 296.817 404.143C299.157 395.772 303.289 391.185 305.771 389.066Z" fill="white"/>
</mask>
<g mask="url(#mask17_2952_617)">
<path opacity="0.14" d="M255.508 353.5C248.008 334.5 252.508 296.5 231.508 301.5C216.205 305.144 188.162 318.078 174.07 324.829C175.734 330.567 184.935 338.43 198.909 337.153C211.367 336.015 234.326 323.07 234.326 323.07C234.326 323.07 234.576 345.07 238.826 353.07C243.076 361.07 262.576 380.57 270.326 385.57C275.241 388.741 287.491 397.438 296.819 404.145C297.766 400.76 299.006 398.003 300.311 395.768C281.691 382.013 259.694 364.106 255.508 353.5Z" fill="black"/>
</g>
<mask id="mask18_2952_617" style="mask-type:luminance" maskUnits="userSpaceOnUse" x="173" y="295" width="133" height="110">
<path d="M305.771 389.066C300.484 383.908 280.651 357.298 272.824 342C261.354 319.582 260.119 311.941 255.619 303.941C251.119 295.941 244.323 295.318 234.573 296.318C224.823 297.318 207.378 299.128 185.974 311.267C185.974 311.267 176.99 316.151 174.24 321.151C171.49 326.151 181.502 338.741 198.907 337.151C211.365 336.013 234.324 323.068 234.324 323.068C234.324 323.068 234.574 345.068 238.824 353.068C243.074 361.068 262.574 380.568 270.324 385.568C275.239 388.739 287.489 397.436 296.817 404.143C299.157 395.772 303.289 391.185 305.771 389.066Z" fill="white"/>
</mask>
<g mask="url(#mask18_2952_617)">
<path d="M234.32 323.068L233.57 310.068" stroke="#263238" stroke-miterlimit="10" stroke-linecap="round" stroke-linejoin="round"/>
</g>
<path d="M305.771 389.066C300.484 383.908 280.651 357.298 272.824 342C261.354 319.582 260.119 311.941 255.619 303.941C251.119 295.941 244.323 295.318 234.573 296.318C224.823 297.318 207.378 299.128 185.974 311.267C185.974 311.267 176.99 316.151 174.24 321.151C171.49 326.151 181.502 338.741 198.907 337.151C211.365 336.013 234.324 323.068 234.324 323.068C234.324 323.068 234.574 345.068 238.824 353.068C243.074 361.068 262.574 380.568 270.324 385.568C275.239 388.739 287.489 397.436 296.817 404.143C299.157 395.772 303.289 391.185 305.771 389.066Z" stroke="#263238" stroke-miterlimit="10" stroke-linecap="round" stroke-linejoin="round"/>
<path d="M308.071 412.32C312.071 415.32 319.571 420.82 321.321 421.07C323.071 421.32 341.321 399.07 345.571 391.57C349.821 384.07 353.571 368.32 352.071 364.82C350.571 361.32 347.571 364.32 344.571 366.82C341.571 369.32 314.071 387.57 311.571 388.82C310.916 389.147 310.317 389.421 309.783 389.65C309.059 391.018 308.187 393.144 308.821 394.57C309.821 396.82 314.071 399.82 314.071 399.82L306.508 411.165C307.181 411.659 307.716 412.054 308.071 412.32Z" fill="#263238" stroke="#263238" stroke-miterlimit="10" stroke-linecap="round" stroke-linejoin="round"/>
<path d="M345.569 391.57C349.819 384.07 353.569 368.32 352.069 364.82C351.2 362.792 349.826 362.952 348.242 363.926C349.294 368.604 348.232 377.614 343.069 387.32C338.462 395.98 324.222 411.286 317.047 418.741C318.994 420.024 320.619 420.97 321.319 421.07C323.069 421.32 341.319 399.07 345.569 391.57Z" fill="white"/>
<mask id="mask19_2952_617" style="mask-type:luminance" maskUnits="userSpaceOnUse" x="317" y="363" width="36" height="59">
<path d="M345.569 391.57C349.819 384.07 353.569 368.32 352.069 364.82C351.2 362.792 349.826 362.952 348.242 363.926C349.294 368.604 348.232 377.614 343.069 387.32C338.462 395.98 324.222 411.286 317.047 418.741C318.994 420.024 320.619 420.97 321.319 421.07C323.069 421.32 341.319 399.07 345.569 391.57Z" fill="white"/>
</mask>
<g mask="url(#mask19_2952_617)">
<path d="M321.574 421.005C321.638 420.976 321.709 420.937 321.787 420.888C321.81 420.873 321.831 420.863 321.855 420.846C321.956 420.779 322.068 420.696 322.19 420.601C322.228 420.571 322.269 420.536 322.309 420.504C322.401 420.429 322.498 420.347 322.6 420.258C322.654 420.211 322.707 420.165 322.763 420.114C322.886 420.003 323.016 419.884 323.151 419.756C323.229 419.682 323.311 419.603 323.393 419.524C323.5 419.421 323.608 419.315 323.721 419.203C323.813 419.111 323.908 419.016 324.004 418.919C324.094 418.828 324.187 418.733 324.28 418.637C324.509 418.401 324.747 418.153 324.995 417.89C325.033 417.849 325.07 417.811 325.109 417.77C325.254 417.615 325.405 417.453 325.556 417.289C325.614 417.226 325.673 417.163 325.732 417.098C326.255 416.529 326.809 415.913 327.388 415.257C327.403 415.24 327.418 415.223 327.433 415.206C327.635 414.977 327.839 414.744 328.047 414.507L328.05 414.503L323.685 411.695C321.196 414.396 318.887 416.83 317.047 418.743C317.278 418.895 317.504 419.042 317.724 419.184C317.756 419.204 317.786 419.224 317.818 419.244C318.029 419.379 318.236 419.51 318.436 419.634C318.44 419.637 318.444 419.639 318.448 419.642C318.79 419.854 319.107 420.041 319.408 420.213C319.502 420.266 319.598 420.323 319.687 420.372C319.785 420.426 319.875 420.473 319.967 420.521C320.077 420.579 320.184 420.634 320.285 420.684C320.361 420.721 320.433 420.756 320.504 420.788C320.613 420.838 320.714 420.88 320.809 420.917C320.86 420.937 320.913 420.959 320.96 420.976C321.095 421.023 321.219 421.059 321.319 421.073C321.368 421.08 321.434 421.063 321.508 421.036C321.528 421.026 321.551 421.015 321.574 421.005Z" fill="#0F4C81"/>
</g>
<mask id="mask20_2952_617" style="mask-type:luminance" maskUnits="userSpaceOnUse" x="317" y="363" width="36" height="59">
<path d="M345.569 391.57C349.819 384.07 353.569 368.32 352.069 364.82C351.2 362.792 349.826 362.952 348.242 363.926C349.294 368.604 348.232 377.614 343.069 387.32C338.462 395.98 324.222 411.286 317.047 418.741C318.994 420.024 320.619 420.97 321.319 421.07C323.069 421.32 341.319 399.07 345.569 391.57Z" fill="white"/>
</mask>
<g mask="url(#mask20_2952_617)">
<path opacity="0.5" d="M321.574 421.005C321.638 420.976 321.709 420.937 321.787 420.888C321.81 420.873 321.831 420.863 321.855 420.846C321.956 420.779 322.068 420.696 322.19 420.601C322.228 420.571 322.269 420.536 322.309 420.504C322.401 420.429 322.498 420.347 322.6 420.258C322.654 420.211 322.707 420.165 322.763 420.114C322.886 420.003 323.016 419.884 323.151 419.756C323.229 419.682 323.311 419.603 323.393 419.524C323.5 419.421 323.608 419.315 323.721 419.203C323.813 419.111 323.908 419.016 324.004 418.919C324.094 418.828 324.187 418.733 324.28 418.637C324.509 418.401 324.747 418.153 324.995 417.89C325.033 417.849 325.07 417.811 325.109 417.77C325.254 417.615 325.405 417.453 325.556 417.289C325.614 417.226 325.673 417.163 325.732 417.098C326.255 416.529 326.809 415.913 327.388 415.257C327.403 415.24 327.418 415.223 327.433 415.206C327.635 414.977 327.839 414.744 328.047 414.507L328.05 414.503L323.685 411.695C321.196 414.396 318.887 416.83 317.047 418.743C317.278 418.895 317.504 419.042 317.724 419.184C317.756 419.204 317.786 419.224 317.818 419.244C318.029 419.379 318.236 419.51 318.436 419.634C318.44 419.637 318.444 419.639 318.448 419.642C318.79 419.854 319.107 420.041 319.408 420.213C319.502 420.266 319.598 420.323 319.687 420.372C319.785 420.426 319.875 420.473 319.967 420.521C320.077 420.579 320.184 420.634 320.285 420.684C320.361 420.721 320.433 420.756 320.504 420.788C320.613 420.838 320.714 420.88 320.809 420.917C320.86 420.937 320.913 420.959 320.96 420.976C321.095 421.023 321.219 421.059 321.319 421.073C321.368 421.08 321.434 421.063 321.508 421.036C321.528 421.026 321.551 421.015 321.574 421.005Z" fill="white"/>
</g>
<path d="M345.569 391.57C349.819 384.07 353.569 368.32 352.069 364.82C351.2 362.792 349.826 362.952 348.242 363.926C349.294 368.604 348.232 377.614 343.069 387.32C338.462 395.98 324.222 411.286 317.047 418.741C318.994 420.024 320.619 420.97 321.319 421.07C323.069 421.32 341.319 399.07 345.569 391.57Z" stroke="#263238" stroke-miterlimit="10" stroke-linecap="round" stroke-linejoin="round"/>
<path d="M305.823 426.82C298.323 422.07 289.823 408.82 289.573 404.32C289.553 403.954 289.598 403.45 289.69 402.846C287.315 402.875 285.573 404.32 285.573 404.32C285.573 404.32 280.073 399.32 275.823 396.57C272.778 394.6 268.847 394.044 266.855 393.885C263.224 396.866 259.867 399.28 259.323 401.32C258.323 405.07 265.073 420.07 281.323 430.57C297.573 441.07 303.073 439.32 307.823 438.32C312.573 437.32 313.323 431.57 305.823 426.82Z" fill="#263238" stroke="#263238" stroke-miterlimit="10" stroke-linecap="round" stroke-linejoin="round"/>
<path d="M305.823 426.819C303.609 425.417 301.311 423.265 299.16 420.825C294 418.634 287.116 415.788 281.073 412.069C274.573 408.069 276.073 405.569 272.323 401.819C269.445 398.941 263.784 398.568 261.299 398.549C260.274 399.547 259.55 400.466 259.323 401.319C258.323 405.069 265.073 420.069 281.323 430.569C297.573 441.069 303.073 439.319 307.823 438.319C312.573 437.319 313.323 431.569 305.823 426.819Z" fill="white"/>
<mask id="mask21_2952_617" style="mask-type:luminance" maskUnits="userSpaceOnUse" x="259" y="398" width="53" height="42">
<path d="M305.823 426.819C303.609 425.417 301.311 423.265 299.16 420.825C294 418.634 287.116 415.788 281.073 412.069C274.573 408.069 276.073 405.569 272.323 401.819C269.445 398.941 263.784 398.568 261.299 398.549C260.274 399.547 259.55 400.466 259.323 401.319C258.323 405.069 265.073 420.069 281.323 430.569C297.573 441.069 303.073 439.319 307.823 438.319C312.573 437.319 313.323 431.569 305.823 426.819Z" fill="white"/>
</mask>
<g mask="url(#mask21_2952_617)">
<path d="M305.823 426.819C303.609 425.417 301.311 423.265 299.16 420.825C294 418.634 287.116 415.788 281.073 412.069C274.573 408.069 276.073 405.569 272.323 401.819C269.445 398.941 263.784 398.568 261.299 398.549C260.274 399.547 259.55 400.466 259.323 401.319C258.323 405.069 265.073 420.069 281.323 430.569C297.573 441.069 303.073 439.319 307.823 438.319C312.573 437.319 313.323 431.569 305.823 426.819Z" fill="#0F4C81"/>
</g>
<mask id="mask22_2952_617" style="mask-type:luminance" maskUnits="userSpaceOnUse" x="259" y="398" width="53" height="42">
<path d="M305.823 426.819C303.609 425.417 301.311 423.265 299.16 420.825C294 418.634 287.116 415.788 281.073 412.069C274.573 408.069 276.073 405.569 272.323 401.819C269.445 398.941 263.784 398.568 261.299 398.549C260.274 399.547 259.55 400.466 259.323 401.319C258.323 405.069 265.073 420.069 281.323 430.569C297.573 441.069 303.073 439.319 307.823 438.319C312.573 437.319 313.323 431.569 305.823 426.819Z" fill="white"/>
</mask>
<g mask="url(#mask22_2952_617)">
<path opacity="0.5" d="M305.823 426.819C303.609 425.417 301.311 423.265 299.16 420.825C294 418.634 287.116 415.788 281.073 412.069C274.573 408.069 276.073 405.569 272.323 401.819C269.445 398.941 263.784 398.568 261.299 398.549C260.274 399.547 259.55 400.466 259.323 401.319C258.323 405.069 265.073 420.069 281.323 430.569C297.573 441.069 303.073 439.319 307.823 438.319C312.573 437.319 313.323 431.569 305.823 426.819Z" fill="white"/>
</g>
<path d="M305.823 426.819C303.609 425.417 301.311 423.265 299.16 420.825C294 418.634 287.116 415.788 281.073 412.069C274.573 408.069 276.073 405.569 272.323 401.819C269.445 398.941 263.784 398.568 261.299 398.549C260.274 399.547 259.55 400.466 259.323 401.319C258.323 405.069 265.073 420.069 281.323 430.569C297.573 441.069 303.073 439.319 307.823 438.319C312.573 437.319 313.323 431.569 305.823 426.819Z" stroke="#263238" stroke-miterlimit="10" stroke-linecap="round" stroke-linejoin="round"/>
<path d="M307.068 428.569C300.568 424.819 287.318 422.319 278.818 416.569C270.318 410.819 272.568 405.819 266.318 401.819C263.446 399.981 261.052 400.414 259.3 401.418C258.432 405.316 265.199 420.154 281.318 430.569C297.568 441.069 303.068 439.319 307.818 438.319C310.975 437.654 312.347 434.889 310.722 431.715C309.696 430.483 308.483 429.386 307.068 428.569Z" fill="#263238"/>
<mask id="mask23_2952_617" style="mask-type:luminance" maskUnits="userSpaceOnUse" x="259" y="400" width="53" height="40">
<path d="M307.068 428.569C300.568 424.819 287.318 422.319 278.818 416.569C270.318 410.819 272.568 405.819 266.318 401.819C263.446 399.981 261.052 400.414 259.3 401.418C258.432 405.316 265.199 420.154 281.318 430.569C297.568 441.069 303.068 439.319 307.818 438.319C310.975 437.654 312.347 434.889 310.722 431.715C309.696 430.483 308.483 429.386 307.068 428.569Z" fill="white"/>
</mask>
<g mask="url(#mask23_2952_617)">
<path opacity="0.53" d="M307.068 428.569C300.568 424.819 287.318 422.319 278.818 416.569C270.318 410.819 272.568 405.819 266.318 401.819C263.446 399.981 261.052 400.414 259.3 401.418C258.432 405.316 265.199 420.154 281.318 430.569C297.568 441.069 303.068 439.319 307.818 438.319C310.975 437.654 312.347 434.889 310.722 431.715C309.696 430.483 308.483 429.386 307.068 428.569Z" fill="white"/>
</g>
<path d="M307.068 428.569C300.568 424.819 287.318 422.319 278.818 416.569C270.318 410.819 272.568 405.819 266.318 401.819C263.446 399.981 261.052 400.414 259.3 401.418C258.432 405.316 265.199 420.154 281.318 430.569C297.568 441.069 303.068 439.319 307.818 438.319C310.975 437.654 312.347 434.889 310.722 431.715C309.696 430.483 308.483 429.386 307.068 428.569Z" stroke="#263238" stroke-miterlimit="10" stroke-linecap="round" stroke-linejoin="round"/>
<path d="M182.497 380.749C182.497 380.749 187.296 374.922 187.981 379.378C188.667 383.834 187.638 392.06 184.211 395.145C180.783 398.23 179.07 393.431 179.07 393.431L181.126 390.689C181.126 390.689 182.84 394.117 184.211 388.632C185.582 383.148 181.469 383.833 181.469 383.833L182.497 380.749Z" fill="white" stroke="#263238" stroke-miterlimit="10" stroke-linecap="round" stroke-linejoin="round"/>
<path d="M178.82 402.685C175.98 404.787 166.728 404.787 163.888 402.685C157.878 398.236 158.911 376.74 158.911 376.74H183.775C183.775 376.74 184.83 398.236 178.82 402.685Z" fill="white" stroke="#263238" stroke-miterlimit="10" stroke-linecap="round" stroke-linejoin="round"/>
<path d="M161.617 372.523C161.617 369.816 164.123 369.816 164.123 367.109C164.123 364.404 161.617 364.404 161.617 361.698C161.617 358.99 164.123 358.99 164.123 356.283C164.123 353.573 161.617 353.573 161.617 350.864C161.617 348.154 164.123 348.154 164.123 345.445" stroke="#263238" stroke-miterlimit="10" stroke-linecap="round" stroke-linejoin="round"/>
<path d="M170.211 372.524C170.211 370.469 172.717 370.469 172.717 368.415C172.717 366.36 170.211 366.36 170.211 364.305C170.211 362.248 172.717 362.248 172.717 360.191C172.717 358.133 170.211 358.133 170.211 356.075C170.211 354.017 172.717 354.017 172.717 351.959" stroke="#263238" stroke-miterlimit="10" stroke-linecap="round" stroke-linejoin="round"/>
<path d="M179.656 372.523C179.656 369.816 182.162 369.816 182.162 367.109C182.162 364.404 179.656 364.404 179.656 361.698C179.656 358.99 182.162 358.99 182.162 356.283C182.162 353.573 179.656 353.573 179.656 350.864C179.656 348.154 182.162 348.154 182.162 345.445" stroke="#263238" stroke-miterlimit="10" stroke-linecap="round" stroke-linejoin="round"/>
<path d="M183.778 376.739C183.778 377.365 178.212 377.872 171.346 377.872C164.48 377.872 158.914 377.365 158.914 376.739C158.914 376.114 164.48 375.607 171.346 375.607C178.212 375.607 183.778 376.114 183.778 376.739Z" fill="white" stroke="#263238" stroke-miterlimit="10" stroke-linecap="round" stroke-linejoin="round"/>
<path d="M206.719 222.024C206.719 222.024 207.883 234.655 208.374 238.638C208.864 242.622 209.983 254.087 211.133 257.878C212.283 261.669 218.547 268.261 219.154 266.736C219.761 265.211 222.859 254.914 221.617 248.792C220.375 242.669 219.999 237.347 220.773 235.815C221.547 234.283 224.312 232.507 224.312 232.507C224.312 232.507 219.377 230.032 214.923 227.039C210.468 224.045 207.333 220.665 206.719 222.024Z" fill="white"/>
<mask id="mask24_2952_617" style="mask-type:luminance" maskUnits="userSpaceOnUse" x="206" y="221" width="19" height="46">
<path d="M206.719 222.024C206.719 222.024 207.883 234.655 208.374 238.638C208.864 242.622 209.983 254.087 211.133 257.878C212.283 261.669 218.547 268.261 219.154 266.736C219.761 265.211 222.859 254.914 221.617 248.792C220.375 242.669 219.999 237.347 220.773 235.815C221.547 234.283 224.312 232.507 224.312 232.507C224.312 232.507 219.377 230.032 214.923 227.039C210.468 224.045 207.333 220.665 206.719 222.024Z" fill="white"/>
</mask>
<g mask="url(#mask24_2952_617)">
<path d="M222.765 233.093L221.743 231.147C219.907 230.14 217.346 228.669 214.922 227.039C210.468 224.045 207.332 220.666 206.719 222.024C206.719 222.024 207.883 234.655 208.374 238.638C208.864 242.622 209.983 254.087 211.133 257.878C211.414 258.803 212.002 259.896 212.735 260.996C211.525 253.455 212.838 239.843 212.838 239.843L222.765 233.093Z" fill="#0F4C81"/>
</g>
<mask id="mask25_2952_617" style="mask-type:luminance" maskUnits="userSpaceOnUse" x="206" y="221" width="19" height="46">
<path d="M206.719 222.024C206.719 222.024 207.883 234.655 208.374 238.638C208.864 242.622 209.983 254.087 211.133 257.878C212.283 261.669 218.547 268.261 219.154 266.736C219.761 265.211 222.859 254.914 221.617 248.792C220.375 242.669 219.999 237.347 220.773 235.815C221.547 234.283 224.312 232.507 224.312 232.507C224.312 232.507 219.377 230.032 214.923 227.039C210.468 224.045 207.333 220.665 206.719 222.024Z" fill="white"/>
</mask>
<g mask="url(#mask25_2952_617)">
<path opacity="0.5" d="M222.765 233.093L221.743 231.147C219.907 230.14 217.346 228.669 214.922 227.039C210.468 224.045 207.332 220.666 206.719 222.024C206.719 222.024 207.883 234.655 208.374 238.638C208.864 242.622 209.983 254.087 211.133 257.878C211.414 258.803 212.002 259.896 212.735 260.996C211.525 253.455 212.838 239.843 212.838 239.843L222.765 233.093Z" fill="white"/>
</g>
<path d="M206.719 222.024C206.719 222.024 207.883 234.655 208.374 238.638C208.864 242.622 209.983 254.087 211.133 257.878C212.283 261.669 218.547 268.261 219.154 266.736C219.761 265.211 222.859 254.914 221.617 248.792C220.375 242.669 219.999 237.347 220.773 235.815C221.547 234.283 224.312 232.507 224.312 232.507C224.312 232.507 219.377 230.032 214.923 227.039C210.468 224.045 207.333 220.665 206.719 222.024Z" stroke="#263238" stroke-miterlimit="10" stroke-linecap="round" stroke-linejoin="round"/>
<path d="M206.256 223.828C206.256 223.828 213.457 229.856 218.984 232.032C224.51 234.208 232.994 234.092 234.186 231.216C235.379 228.34 232.09 205.618 229.243 199.637C226.396 193.656 223.345 193.558 218.322 193.103C213.299 192.648 203.231 196.744 201.464 201.601C199.697 206.458 201.709 213.343 203.175 217.421C204.641 221.498 206.256 223.828 206.256 223.828Z" fill="white"/>
<mask id="mask26_2952_617" style="mask-type:luminance" maskUnits="userSpaceOnUse" x="200" y="193" width="35" height="41">
<path d="M206.256 223.828C206.256 223.828 213.457 229.856 218.984 232.032C224.51 234.208 232.994 234.092 234.186 231.216C235.379 228.34 232.09 205.618 229.243 199.637C226.396 193.656 223.345 193.558 218.322 193.103C213.299 192.648 203.231 196.744 201.464 201.601C199.697 206.458 201.709 213.343 203.175 217.421C204.641 221.498 206.256 223.828 206.256 223.828Z" fill="white"/>
</mask>
<g mask="url(#mask26_2952_617)">
<path d="M219.194 223.563C216.642 215.979 216.017 204.105 216.017 200.928C216.017 198.477 222.397 195.791 225.313 194.691C223.404 193.509 221.184 193.362 218.322 193.103C213.299 192.648 203.231 196.744 201.464 201.601C199.697 206.458 201.709 213.343 203.175 217.421C204.641 221.498 206.256 223.829 206.256 223.829C206.256 223.829 213.457 229.857 218.984 232.033C222.666 233.483 227.65 233.909 230.926 233.185C227.021 231.692 220.894 228.615 219.194 223.563Z" fill="#0F4C81"/>
</g>
<mask id="mask27_2952_617" style="mask-type:luminance" maskUnits="userSpaceOnUse" x="200" y="193" width="35" height="41">
<path d="M206.256 223.828C206.256 223.828 213.457 229.856 218.984 232.032C224.51 234.208 232.994 234.092 234.186 231.216C235.379 228.34 232.09 205.618 229.243 199.637C226.396 193.656 223.345 193.558 218.322 193.103C213.299 192.648 203.231 196.744 201.464 201.601C199.697 206.458 201.709 213.343 203.175 217.421C204.641 221.498 206.256 223.828 206.256 223.828Z" fill="white"/>
</mask>
<g mask="url(#mask27_2952_617)">
<path opacity="0.5" d="M219.194 223.563C216.642 215.979 216.017 204.105 216.017 200.928C216.017 198.477 222.397 195.791 225.313 194.691C223.404 193.509 221.184 193.362 218.322 193.103C213.299 192.648 203.231 196.744 201.464 201.601C199.697 206.458 201.709 213.343 203.175 217.421C204.641 221.498 206.256 223.829 206.256 223.829C206.256 223.829 213.457 229.857 218.984 232.033C222.666 233.483 227.65 233.909 230.926 233.185C227.021 231.692 220.894 228.615 219.194 223.563Z" fill="white"/>
</g>
<path d="M206.256 223.828C206.256 223.828 213.457 229.856 218.984 232.032C224.51 234.208 232.994 234.092 234.186 231.216C235.379 228.34 232.09 205.618 229.243 199.637C226.396 193.656 223.345 193.558 218.322 193.103C213.299 192.648 203.231 196.744 201.464 201.601C199.697 206.458 201.709 213.343 203.175 217.421C204.641 221.498 206.256 223.828 206.256 223.828Z" stroke="#263238" stroke-miterlimit="10" stroke-linecap="round" stroke-linejoin="round"/>
<path d="M229.785 208.975C229.898 211.855 228.093 214.265 225.753 214.357C223.413 214.449 221.424 212.189 221.31 209.309C221.197 206.429 223.002 204.019 225.342 203.927C227.682 203.834 229.671 206.094 229.785 208.975Z" stroke="#263238" stroke-miterlimit="10" stroke-linecap="round" stroke-linejoin="round"/>
<path d="M235.447 207.88C235.56 210.76 234.631 213.135 233.371 213.185C232.111 213.235 230.998 210.94 230.884 208.06C230.771 205.18 231.7 202.805 232.96 202.755C234.22 202.706 235.334 205 235.447 207.88Z" stroke="#263238" stroke-miterlimit="10" stroke-linecap="round" stroke-linejoin="round"/>
<path d="M230.078 207.938C230.078 207.938 238.338 209.508 237.546 211.498C236.754 213.488 231.164 215.638 231.164 215.638" fill="white"/>
<path d="M230.078 207.938C230.078 207.938 238.338 209.508 237.546 211.498C236.754 213.488 231.164 215.638 231.164 215.638" stroke="#263238" stroke-miterlimit="10" stroke-linecap="round" stroke-linejoin="round"/>
<path d="M229.57 207.018C229.57 207.018 229.686 205.997 230.963 206.65" stroke="#263238" stroke-miterlimit="10" stroke-linecap="round" stroke-linejoin="round"/>
<path d="M221.075 209.777L206.055 215.687" stroke="#263238" stroke-miterlimit="10" stroke-linecap="round" stroke-linejoin="round"/>
<path d="M221.273 204.92C221.273 204.92 222.196 202.537 225.017 202.661" stroke="#263238" stroke-width="2" stroke-miterlimit="10" stroke-linecap="round" stroke-linejoin="round"/>
<path d="M231.281 202.727L228.969 203.601" stroke="#263238" stroke-width="2" stroke-miterlimit="10" stroke-linecap="round" stroke-linejoin="round"/>
<path d="M224.141 219.505C224.141 219.505 227.113 218.721 228.85 220.487" stroke="#263238" stroke-miterlimit="10" stroke-linecap="round" stroke-linejoin="round"/>
<path d="M226.077 209.523C226.214 210.526 226.03 211.38 225.665 211.43C225.3 211.48 224.893 210.707 224.756 209.704C224.619 208.701 224.803 207.847 225.168 207.797C225.533 207.747 225.94 208.52 226.077 209.523Z" fill="#263238"/>
<path d="M207.461 215.727C207.461 215.727 206.451 217.725 209.285 217.831C212.118 217.937 214.023 216.556 212.65 214.869C211.278 213.182 209.254 211.521 211.341 209.262C213.429 207.004 217.489 205.103 215.213 202.581C212.937 200.059 204.54 202.348 206.636 200.307C208.732 198.266 218.442 196.143 222.805 196.406C227.168 196.67 235.306 193.302 237.09 188.88C238.875 184.457 236.377 176.286 230.518 176.734C224.66 177.182 220.293 182.36 217.694 182.679C215.095 182.999 209.76 180.162 205.291 182.732C200.822 185.302 200.67 192.49 200.269 193.376C199.869 194.262 193.827 195.588 192.763 201.724C191.699 207.86 194.503 212.755 197.004 215.485C199.505 218.216 200.635 219.26 200.635 219.26L207.461 215.727Z" fill="#263238" stroke="#263238" stroke-miterlimit="10" stroke-linecap="round" stroke-linejoin="round"/>
<path d="M194.736 204.652C194.637 206.168 195.382 207.311 195.382 207.311" stroke="white" stroke-width="0.75" stroke-miterlimit="10" stroke-linecap="round" stroke-linejoin="round"/>
<path d="M220.235 188.822C220.235 188.822 218.048 184.051 223.615 184.051C229.182 184.051 229.977 191.009 224.211 193.594C218.446 196.178 205.921 196.775 199.161 199.757C197.471 200.503 196.39 201.347 195.719 202.196" stroke="white" stroke-width="0.75" stroke-miterlimit="10" stroke-linecap="round" stroke-linejoin="round"/>
<path d="M210.163 205.762C208.165 206.477 205.573 207.478 202.935 208.703C197.368 211.288 198.561 213.872 198.561 213.872" stroke="white" stroke-width="0.75" stroke-miterlimit="10" stroke-linecap="round" stroke-linejoin="round"/>
<path d="M213.872 204.527C213.872 204.527 213.386 204.671 212.555 204.943" stroke="white" stroke-width="0.75" stroke-miterlimit="10" stroke-linecap="round" stroke-linejoin="round"/>
<path d="M208.416 217.867C208.416 217.867 205.186 213.206 201.777 215.081C198.369 216.956 201.024 223.598 203.074 225.911C205.124 228.224 209.09 223.933 209.482 222.83" fill="white"/>
<mask id="mask28_2952_617" style="mask-type:luminance" maskUnits="userSpaceOnUse" x="200" y="214" width="10" height="13">
<path d="M208.416 217.867C208.416 217.867 205.186 213.206 201.777 215.081C198.369 216.956 201.024 223.598 203.074 225.911C205.124 228.224 209.09 223.933 209.482 222.83" fill="white"/>
</mask>
<g mask="url(#mask28_2952_617)">
<path d="M208.416 217.867C208.416 217.867 205.186 213.206 201.777 215.081C198.369 216.956 201.024 223.598 203.074 225.911C205.124 228.224 209.09 223.933 209.482 222.83" fill="#0F4C81"/>
</g>
<mask id="mask29_2952_617" style="mask-type:luminance" maskUnits="userSpaceOnUse" x="200" y="214" width="10" height="13">
<path d="M208.416 217.867C208.416 217.867 205.186 213.206 201.777 215.081C198.369 216.956 201.024 223.598 203.074 225.911C205.124 228.224 209.09 223.933 209.482 222.83" fill="white"/>
</mask>
<g mask="url(#mask29_2952_617)">
<path opacity="0.5" d="M208.416 217.867C208.416 217.867 205.186 213.206 201.777 215.081C198.369 216.956 201.024 223.598 203.074 225.911C205.124 228.224 209.09 223.933 209.482 222.83" fill="white"/>
</g>
<path d="M208.416 217.867C208.416 217.867 205.186 213.206 201.777 215.081C198.369 216.956 201.024 223.598 203.074 225.911C205.124 228.224 209.09 223.933 209.482 222.83" stroke="#263238" stroke-miterlimit="10" stroke-linecap="round" stroke-linejoin="round"/>
<path d="M167.618 276.258H95.9403C93.1123 276.258 90.8203 273.966 90.8203 271.138V218.735C90.8203 215.907 93.1123 213.615 95.9403 213.615H167.618C170.446 213.615 172.738 215.907 172.738 218.735V271.138C172.738 273.966 170.445 276.258 167.618 276.258Z" fill="white" stroke="#263238" stroke-miterlimit="10" stroke-linecap="round" stroke-linejoin="round"/>
<path d="M171.18 258.68L219.18 271.18L171.18 247.68" fill="white"/>
<path d="M171.18 258.68L219.18 271.18L171.18 247.68" stroke="#263238" stroke-miterlimit="10" stroke-linecap="round" stroke-linejoin="round"/>
<path d="M116.72 219.639H97.4453V270.235H116.72V219.639Z" fill="#0F4C81" stroke="#263238" stroke-miterlimit="10" stroke-linecap="round" stroke-linejoin="round"/>
<path d="M168.487 219.639H166.078V270.235H168.487V219.639Z" fill="#0F4C81" stroke="#263238" stroke-miterlimit="10" stroke-linecap="round" stroke-linejoin="round"/>
<path d="M168.487 242.775H166.078V247.099H168.487V242.775Z" fill="#263238" stroke="#263238" stroke-miterlimit="10" stroke-linecap="round" stroke-linejoin="round"/>
<path d="M122.742 220.844H160.689" stroke="#263238" stroke-miterlimit="10" stroke-linecap="round" stroke-linejoin="round"/>
<path d="M122.742 226.264H160.689" stroke="#263238" stroke-miterlimit="10" stroke-linecap="round" stroke-linejoin="round"/>
<path d="M122.742 231.686H160.689" stroke="#263238" stroke-miterlimit="10" stroke-linecap="round" stroke-linejoin="round"/>
<path d="M122.742 237.105H160.689" stroke="#263238" stroke-miterlimit="10" stroke-linecap="round" stroke-linejoin="round"/>
<path d="M122.742 250.357H160.689" stroke="#263238" stroke-miterlimit="10" stroke-linecap="round" stroke-linejoin="round"/>
<path d="M122.742 255.176H160.689" stroke="#263238" stroke-miterlimit="10" stroke-linecap="round" stroke-linejoin="round"/>
<path d="M122.742 259.996H160.689" stroke="#263238" stroke-miterlimit="10" stroke-linecap="round" stroke-linejoin="round"/>
<path d="M122.742 269.996H160.689" stroke="#263238" stroke-miterlimit="10" stroke-linecap="round" stroke-linejoin="round"/>
<path d="M97.4453 270.235L116.719 219.639" stroke="#263238" stroke-miterlimit="10" stroke-linecap="round" stroke-linejoin="round"/>
<path d="M387.867 410.262C397.104 410.262 404.593 406.902 404.593 402.758C404.593 398.614 397.104 395.254 387.867 395.254C378.629 395.254 371.141 398.614 371.141 402.758C371.141 406.902 378.629 410.262 387.867 410.262Z" fill="#0F4C81"/>
<path opacity="0.5" d="M387.867 410.262C397.104 410.262 404.593 406.902 404.593 402.758C404.593 398.614 397.104 395.254 387.867 395.254C378.629 395.254 371.141 398.614 371.141 402.758C371.141 406.902 378.629 410.262 387.867 410.262Z" fill="white"/>
<path d="M368.297 291.777C370.087 292.559 374.466 292.461 374.469 292.46C374.515 292.459 373.528 289.593 373.445 289.42C372.484 287.41 369.446 284.092 366.974 284.426C365.193 284.667 364.203 286.449 364.605 288.126C365.016 289.839 366.773 291.111 368.297 291.777Z" fill="#263238"/>
<path d="M425.66 276.871C423.18 276.604 420.232 280.003 419.326 282.038C419.248 282.214 418.339 285.105 418.385 285.105C418.385 285.105 418.428 285.105 418.438 285.104C417.968 285.637 417.471 286.214 416.941 286.855C415.971 288.047 414.885 289.403 413.804 290.958C412.719 292.509 411.584 294.225 410.551 296.14C409.513 298.059 408.52 300.129 407.772 302.396C407.763 302.421 407.758 302.449 407.75 302.475C407.763 301.744 407.731 299.7 407.71 299.543C407.424 297.334 405.572 293.233 403.119 292.78C401.352 292.454 399.855 293.838 399.714 295.557C399.571 297.312 400.843 299.069 402.084 300.178C403.483 301.428 407.368 302.639 407.678 302.734C406.986 304.899 406.451 307.176 406.037 309.511C405.799 310.846 405.6 312.197 405.419 313.555C405.41 312.923 405.397 312.358 405.386 312.279C405.099 310.07 403.248 305.97 400.795 305.516C399.027 305.189 397.531 306.574 397.39 308.293C397.246 310.048 398.519 311.805 399.76 312.913C401.019 314.038 404.31 315.136 405.185 315.416C405.121 315.937 405.051 316.458 404.989 316.979C404.69 319.482 404.402 321.982 404.045 324.425C403.92 325.286 403.764 326.129 403.612 326.974C403.603 326.413 403.591 325.94 403.582 325.868C403.296 323.659 401.444 319.558 398.991 319.105C397.224 318.778 395.727 320.163 395.586 321.882C395.442 323.637 396.715 325.394 397.956 326.502C399.157 327.575 402.186 328.617 403.224 328.953C403.042 329.813 402.861 330.675 402.646 331.5C402.486 332.06 402.372 332.61 402.18 333.164C402.002 333.716 401.825 334.263 401.651 334.804C401.276 335.834 400.896 336.899 400.505 337.895C400.239 338.589 399.971 339.246 399.705 339.909C399.84 339.054 400.069 337.373 400.072 337.23C400.106 335.75 399.581 333.345 398.535 331.653C398.541 331.434 398.529 331.216 398.494 331C398.221 329.297 396.621 328.033 394.884 328.495C392.473 329.137 390.944 333.368 390.83 335.593C390.823 335.724 390.909 337.156 390.978 338.059C390.857 337.534 390.745 337.024 390.613 336.486C390.36 335.42 390.076 334.363 389.775 333.225C389.611 332.681 389.444 332.131 389.276 331.576C389.121 331.022 388.887 330.456 388.694 329.89C388.217 328.587 387.671 327.288 387.091 325.993C388.024 325.769 391.326 324.927 392.652 323.91C393.972 322.897 395.372 321.24 395.359 319.479C395.347 317.755 393.958 316.262 392.171 316.456C389.691 316.725 387.538 320.676 387.088 322.858C387.06 322.994 386.913 324.596 386.849 325.477C386.494 324.701 386.144 323.925 385.76 323.152C384.652 320.919 383.46 318.694 382.281 316.469C381.919 315.787 381.568 315.104 381.212 314.422C381.545 314.346 385.492 313.43 386.977 312.291C388.297 311.278 389.697 309.621 389.685 307.86C389.673 306.136 388.283 304.644 386.496 304.838C384.016 305.107 381.864 309.058 381.413 311.24C381.379 311.404 381.171 313.71 381.147 314.298C380.366 312.794 379.601 311.289 378.908 309.773C377.948 307.684 377.122 305.581 376.473 303.485C376.628 303.45 380.751 302.513 382.273 301.346C383.593 300.333 384.993 298.676 384.98 296.915C384.968 295.191 383.578 293.699 381.792 293.893C379.312 294.162 377.159 298.113 376.709 300.295C376.674 300.467 376.451 302.946 376.443 303.399C376.405 303.274 376.351 303.149 376.314 303.024C375.649 300.777 375.287 298.517 375.052 296.384C374.913 295.145 374.849 293.953 374.813 292.792C375.599 292.696 379.186 292.219 380.671 291.32C382.094 290.458 383.668 288.965 383.849 287.213C384.026 285.498 382.809 283.862 381.012 283.859C378.517 283.854 375.944 287.545 375.257 289.664C375.22 289.779 374.97 290.993 374.8 291.879C374.792 291.355 374.774 290.814 374.776 290.311C374.78 288.425 374.899 286.697 375.017 285.168C375.091 284.299 375.175 283.515 375.262 282.782C375.984 282.285 378.869 280.249 379.757 278.793C380.623 277.372 381.331 275.322 380.685 273.684C380.052 272.08 378.218 271.189 376.621 272.014C374.405 273.16 373.822 277.621 374.188 279.818C374.22 280.008 375.057 282.921 375.095 282.895C375.095 282.895 375.13 282.871 375.139 282.865C375.042 283.569 374.945 284.324 374.857 285.151C374.705 286.68 374.548 288.41 374.504 290.304C374.455 292.196 374.454 294.254 374.65 296.421C374.843 298.593 375.157 300.869 375.783 303.171C375.79 303.197 375.801 303.223 375.808 303.249C375.416 302.633 374.261 300.945 374.157 300.826C372.7 299.141 368.893 296.743 366.597 297.718C364.943 298.421 364.458 300.401 365.289 301.913C366.138 303.456 368.168 304.219 369.815 304.459C371.672 304.73 375.58 303.597 375.89 303.505C376.507 305.693 377.318 307.887 378.26 310.063C378.797 311.308 379.378 312.545 379.975 313.777C379.619 313.255 379.296 312.791 379.244 312.73C377.786 311.045 373.98 308.647 371.684 309.622C370.029 310.324 369.545 312.305 370.376 313.816C371.224 315.359 373.255 316.123 374.902 316.362C376.573 316.605 379.924 315.706 380.807 315.456C381.041 315.926 381.27 316.399 381.505 316.868C382.637 319.121 383.776 321.365 384.825 323.6C385.195 324.388 385.531 325.176 385.87 325.965C385.553 325.501 385.282 325.114 385.235 325.059C383.777 323.374 379.971 320.976 377.675 321.951C376.021 322.654 375.536 324.634 376.367 326.145C377.215 327.688 379.246 328.451 380.892 328.691C382.486 328.923 385.587 328.121 386.638 327.829C386.96 328.647 387.285 329.465 387.561 330.272C387.737 330.827 387.945 331.35 388.09 331.917C388.246 332.476 388.4 333.029 388.553 333.577C388.809 334.643 389.079 335.741 389.302 336.787C389.463 337.513 389.603 338.209 389.745 338.908C389.386 338.12 388.649 336.592 388.573 336.471C387.388 334.585 383.988 331.638 381.571 332.254C379.83 332.698 379.05 334.582 379.643 336.202C380.248 337.856 382.139 338.918 383.73 339.405C385.482 339.94 389.361 339.451 389.845 339.387C390.078 340.546 390.293 341.675 390.478 342.744C391.131 346.448 391.534 349.559 391.786 351.736C391.831 352.123 391.869 352.468 391.903 352.794H384.396L386.81 399.897C386.994 403.477 389.949 406.285 393.534 406.285C397.119 406.285 400.075 403.477 400.258 399.897L402.672 352.794H395.677C395.729 352.686 395.778 352.586 395.832 352.473C396.792 350.474 398.123 347.6 399.56 344.084C400.017 342.974 400.483 341.779 400.95 340.547C401.419 340.645 405.259 341.425 407.048 341.021C408.671 340.654 410.636 339.736 411.363 338.132C412.074 336.561 411.438 334.624 409.734 334.052C407.37 333.258 403.76 335.943 402.437 337.736C402.359 337.842 401.64 339.084 401.2 339.874C401.388 339.37 401.576 338.882 401.764 338.361C402.141 337.332 402.488 336.295 402.864 335.179C403.027 334.634 403.192 334.084 403.358 333.528C403.535 332.98 403.652 332.379 403.803 331.8C404.124 330.45 404.385 329.066 404.616 327.666C405.518 327.994 408.736 329.114 410.404 328.997C412.063 328.88 414.145 328.271 415.106 326.795C416.047 325.35 415.711 323.339 414.114 322.515C411.897 321.372 407.922 323.48 406.343 325.051C406.245 325.149 405.238 326.404 404.699 327.104C404.832 326.261 404.968 325.421 405.074 324.564C405.381 322.091 405.615 319.577 405.859 317.071C405.933 316.303 406.017 315.539 406.097 314.774C406.416 314.894 410.213 316.308 412.081 316.177C413.741 316.061 415.823 315.451 416.784 313.975C417.725 312.53 417.389 310.519 415.792 309.695C413.575 308.551 409.6 310.659 408.021 312.231C407.902 312.349 406.457 314.157 406.112 314.635C406.29 312.95 406.483 311.272 406.741 309.626C407.093 307.354 407.564 305.144 408.179 303.038C408.328 303.094 412.284 304.587 414.197 304.453C415.857 304.337 417.939 303.727 418.9 302.251C419.841 300.806 419.505 298.795 417.908 297.971C415.691 296.827 411.716 298.935 410.137 300.507C410.013 300.63 408.459 302.576 408.203 302.949C408.24 302.824 408.264 302.69 408.303 302.566C408.988 300.325 409.933 298.24 410.913 296.332C411.48 295.222 412.085 294.193 412.696 293.204C413.404 293.558 416.659 295.138 418.394 295.207C420.057 295.274 422.193 294.896 423.31 293.535C424.404 292.202 424.291 290.166 422.794 289.172C420.716 287.792 416.534 289.451 414.792 290.839C414.697 290.914 413.819 291.789 413.189 292.434C413.471 291.992 413.754 291.531 414.034 291.113C415.077 289.541 416.13 288.167 417.072 286.957C417.613 286.273 418.116 285.666 418.593 285.102C419.469 285.086 422.999 284.979 424.542 284.255C426.048 283.548 427.77 282.228 428.134 280.506C428.486 278.819 427.447 277.064 425.66 276.871ZM398.197 343.511C396.698 346.961 395.318 349.778 394.327 351.732C394.127 352.126 393.947 352.474 393.781 352.796H393.615C393.566 352.414 393.512 351.997 393.447 351.529C393.144 349.332 392.669 346.201 391.928 342.475C391.697 341.297 391.426 340.044 391.136 338.759C391.427 338.643 393.082 337.974 394.547 337.155C395.824 338.538 399.096 340.156 399.519 340.362C399.076 341.456 398.632 342.517 398.197 343.511Z" fill="#263238"/>
<path d="M412.59 292.739C412.629 292.763 413.386 289.829 413.413 289.638C413.72 287.431 413.017 282.988 410.771 281.903C409.153 281.121 407.344 282.061 406.754 283.682C406.152 285.337 406.915 287.367 407.82 288.764C408.88 290.404 412.587 292.737 412.59 292.739Z" fill="#263238"/>
</svg>
