<svg width="40" height="40" viewBox="0 0 40 40" fill="none" xmlns="http://www.w3.org/2000/svg">
<path d="M33.3335 20.3346V23.168C33.3335 28.418 30.3335 30.668 25.8335 30.668H10.8335C6.3335 30.668 3.3335 28.418 3.3335 23.168V14.168C3.3335 8.91797 6.3335 6.66797 10.8335 6.66797H15.3335C15.1168 7.3013 15.0002 8.0013 15.0002 8.7513V15.2513C15.0002 16.868 15.5335 18.2347 16.4835 19.1847C17.4335 20.1347 18.8002 20.668 20.4168 20.668V22.9847C20.4168 23.8347 21.3835 24.3512 22.1002 23.8846L26.9168 20.668H31.2502C32.0002 20.668 32.7002 20.5512 33.3335 20.3346Z" stroke="white" stroke-width="3" stroke-miterlimit="10" stroke-linecap="round" stroke-linejoin="round"/>
<path d="M36.6667 8.7487V15.2487C36.6667 17.7321 35.4 19.5986 33.3333 20.3319C32.7 20.5486 32 20.6654 31.25 20.6654H26.9167L22.1 23.882C21.3833 24.3486 20.4167 23.8321 20.4167 22.9821V20.6654C18.8 20.6654 17.4333 20.132 16.4833 19.182C15.5333 18.232 15 16.8654 15 15.2487V8.7487C15 7.9987 15.1167 7.2987 15.3333 6.66536C16.0667 4.5987 17.9333 3.33203 20.4167 3.33203H31.25C34.5 3.33203 36.6667 5.4987 36.6667 8.7487Z" stroke="white" stroke-width="3" stroke-miterlimit="10" stroke-linecap="round" stroke-linejoin="round"/>
<path d="M12.3335 36.668H24.3335" stroke="white" stroke-width="3" stroke-miterlimit="10" stroke-linecap="round" stroke-linejoin="round"/>
<path d="M18.3335 30.668V36.6679" stroke="white" stroke-width="3" stroke-miterlimit="10" stroke-linecap="round" stroke-linejoin="round"/>
<path d="M30.8258 12.0833H30.8408" stroke="white" stroke-width="3" stroke-linecap="round" stroke-linejoin="round"/>
<path d="M26.1593 12.0833H26.1743" stroke="white" stroke-width="3" stroke-linecap="round" stroke-linejoin="round"/>
<path d="M21.4923 12.0833H21.5073" stroke="white" stroke-width="3" stroke-linecap="round" stroke-linejoin="round"/>
</svg>
