<svg width="40" height="40" viewBox="0 0 40 40" fill="none" xmlns="http://www.w3.org/2000/svg">
<path d="M18.3335 3.33203H15.0002C6.66683 3.33203 3.3335 6.66536 3.3335 14.9987V24.9987C3.3335 33.332 6.66683 36.6654 15.0002 36.6654H25.0002C33.3335 36.6654 36.6668 33.332 36.6668 24.9987V21.6654" stroke="white" stroke-width="3" stroke-linecap="round" stroke-linejoin="round"/>
<path d="M26.7331 5.03278L13.5998 18.1661C13.0998 18.6661 12.5998 19.6494 12.4998 20.3661L11.7831 25.3828C11.5165 27.1994 12.7998 28.4661 14.6165 28.2161L19.6331 27.4994C20.3331 27.3994 21.3165 26.8994 21.8331 26.3994L34.9665 13.2661C37.2331 10.9994 38.2998 8.36611 34.9665 5.03278C31.6331 1.69944 28.9998 2.76611 26.7331 5.03278Z" stroke="white" stroke-width="3" stroke-miterlimit="10" stroke-linecap="round" stroke-linejoin="round"/>
<path d="M24.8501 6.91797C25.9668 10.9013 29.0834 14.018 33.0834 15.1513" stroke="white" stroke-width="3" stroke-miterlimit="10" stroke-linecap="round" stroke-linejoin="round"/>
</svg>
