<svg width="40" height="40" viewBox="0 0 40 40" fill="none" xmlns="http://www.w3.org/2000/svg">
<path d="M15.0002 36.6654H25.0002C33.3335 36.6654 36.6668 33.332 36.6668 24.9987V14.9987C36.6668 6.66536 33.3335 3.33203 25.0002 3.33203H15.0002C6.66683 3.33203 3.3335 6.66536 3.3335 14.9987V24.9987C3.3335 33.332 6.66683 36.6654 15.0002 36.6654Z" stroke="white" stroke-width="3" stroke-linecap="round" stroke-linejoin="round"/>
<path d="M25.8333 30.8346C27.6667 30.8346 29.1667 29.3346 29.1667 27.5013V12.5013C29.1667 10.668 27.6667 9.16797 25.8333 9.16797C24 9.16797 22.5 10.668 22.5 12.5013V27.5013C22.5 29.3346 23.9833 30.8346 25.8333 30.8346Z" stroke="white" stroke-width="3" stroke-linecap="round" stroke-linejoin="round"/>
<path d="M14.1668 30.832C16.0002 30.832 17.5002 29.332 17.5002 27.4987V21.6654C17.5002 19.832 16.0002 18.332 14.1668 18.332C12.3335 18.332 10.8335 19.832 10.8335 21.6654V27.4987C10.8335 29.332 12.3168 30.832 14.1668 30.832Z" stroke="white" stroke-width="3" stroke-linecap="round" stroke-linejoin="round"/>
</svg>
